<?xml version="1.0" encoding="iso-8859-1"?>
<!-- Generator: Adobe Illustrator 19.0.0, SVG Export Plug-In . SVG Version: 6.00 Build 0)  -->
<svg version="1.1" id="Capa_1" xmlns="http://www.w3.org/2000/svg" xmlns:xlink="http://www.w3.org/1999/xlink" x="0px" y="0px"
	 viewBox="0 0 491.52 491.52" style="enable-background:new 0 0 491.52 491.52;" xml:space="preserve">
<circle style="fill:#334D5C;" cx="245.76" cy="245.76" r="245.76"/>
<path style="opacity:0.1;enable-background:new    ;" d="M487.839,287.944L354.406,154.511v-0.052
	c-5.734-6.911-12.134-13.311-19.046-19.046c-0.051,0.051-0.051,0.051-0.051,0c-3.482-2.919-7.066-5.581-10.803-8.09
	c-3.789-2.509-7.68-4.865-11.674-7.066c-3.942-2.202-8.038-4.147-12.237-5.939c-16.896-7.117-35.43-11.06-54.835-11.06
	s-37.939,3.943-54.835,11.06c-4.198,1.792-8.294,3.738-12.237,5.939c-3.994,2.201-7.885,4.556-11.674,7.066
	c-3.738,2.509-7.322,5.171-10.803,8.09c0,0.051,0,0.051-0.051,0c-6.912,5.734-13.312,12.134-19.046,19.046v0.052
	c-2.918,3.482-5.581,7.066-8.09,10.804c-2.509,3.788-4.864,7.68-7.066,11.673c-2.202,3.942-4.147,8.038-5.939,12.237
	c-7.117,16.896-11.059,35.379-11.059,54.835c0,29.082,8.909,56.166,24.064,78.695c2.509,3.737,5.222,7.372,8.09,10.853
	c2.867,3.482,5.939,6.861,9.114,9.985l143.862,143.862C390.975,469.067,470.325,389.132,487.839,287.944z"/>
<circle style="fill:#27A2DB;" cx="245.76" cy="244.04" r="140.8"/>
<path style="fill:#2D93BA;" d="M245.76,103.242c-77.638,0-140.8,63.163-140.8,140.8c0,77.638,63.162,140.8,140.8,140.8
	s140.8-63.162,140.8-140.8C386.56,166.405,323.398,103.242,245.76,103.242z M117.321,250.07h46.514
	c0.453,19.331,3.076,37.533,7.471,53.944h-39.377C123.336,287.771,118.225,269.469,117.321,250.07z M251.788,172.014v-56.155
	c21.579,3.412,40.4,24.847,51.925,56.155H251.788z M307.613,184.07c4.669,16.243,7.445,34.545,7.937,53.944h-63.761V184.07H307.613z
	 M239.732,115.859v56.155h-51.925C199.332,140.707,218.153,119.271,239.732,115.859z M239.732,184.07v53.944h-63.761
	c0.492-19.399,3.268-37.701,7.937-53.944H239.732z M163.835,238.014h-46.514c0.904-19.399,6.014-37.701,14.607-53.944h39.377
	C166.91,200.481,164.288,218.683,163.835,238.014z M175.971,250.07h63.761v53.944h-55.825
	C179.238,287.771,176.462,269.469,175.971,250.07z M239.732,316.069v56.155c-21.579-3.412-40.4-24.847-51.925-56.155H239.732z
	 M251.788,372.224v-56.155h51.925C292.188,347.377,273.367,368.812,251.788,372.224z M251.788,304.014V250.07h63.761
	c-0.492,19.4-3.268,37.701-7.937,53.944H251.788z M327.685,250.07h46.514c-0.904,19.4-6.014,37.701-14.607,53.944h-39.377
	C324.61,287.602,327.232,269.4,327.685,250.07z M327.685,238.014c-0.453-19.331-3.076-37.533-7.471-53.944h39.377
	c8.593,16.243,13.703,34.545,14.607,53.944H327.685z M352.415,172.014H316.56c-6.993-20.538-16.934-37.59-28.903-49.578
	C314.221,131.616,336.922,149.145,352.415,172.014z M203.863,122.436c-11.969,11.989-21.91,29.04-28.903,49.578h-35.855
	C154.598,149.145,177.299,131.616,203.863,122.436z M139.105,316.069h35.855c6.993,20.538,16.934,37.59,28.903,49.579
	C177.299,356.467,154.598,338.939,139.105,316.069z M287.657,365.648c11.969-11.989,21.91-29.04,28.903-49.579h35.855
	C336.922,338.939,314.221,356.467,287.657,365.648z"/>
<path style="fill:#E1E6E9;" d="M372.629,279.977l-7.898,2.354c-3.439-5.988-7.777-11.261-12.791-15.722l3.926-7.26
	c1.115-2.061,0.347-4.635-1.714-5.75l-18.245-9.865c-2.061-1.115-4.635-0.348-5.75,1.714l-3.926,7.26
	c-6.479-1.754-13.266-2.496-20.159-2.095l-2.354-7.898c-0.669-2.246-3.032-3.524-5.278-2.854l-19.877,5.925
	c-2.246,0.669-3.523,3.032-2.854,5.278l2.354,7.898c-5.987,3.439-11.26,7.776-15.722,12.791l-7.261-3.926
	c-2.061-1.115-4.635-0.347-5.749,1.714l-9.866,18.245c-1.115,2.061-0.347,4.635,1.714,5.75l7.261,3.926
	c-1.753,6.478-2.496,13.266-2.096,20.159l-7.898,2.354c-2.246,0.67-3.523,3.032-2.854,5.278l5.925,19.877
	c0.67,2.246,3.032,3.524,5.278,2.854l7.898-2.354c3.439,5.988,7.778,11.261,12.792,15.722l-3.927,7.261
	c-1.114,2.061-0.347,4.636,1.714,5.75l18.245,9.865c2.061,1.115,4.635,0.347,5.75-1.714l3.926-7.261
	c6.479,1.754,13.266,2.496,20.159,2.096l2.354,7.898c0.67,2.246,3.032,3.524,5.278,2.854l19.877-5.925
	c2.246-0.669,3.523-3.032,2.854-5.278l-2.354-7.898c5.987-3.439,11.261-7.776,15.722-12.791l7.261,3.926
	c2.061,1.115,4.635,0.348,5.75-1.714l9.866-18.245c1.114-2.061,0.347-4.636-1.714-5.75l-7.261-3.926
	c1.753-6.478,2.496-13.266,2.096-20.159l7.898-2.354c2.246-0.669,3.523-3.032,2.854-5.278l-5.925-19.877
	C377.238,280.586,374.875,279.308,372.629,279.977z M323.01,358.59c-24.637,7.344-50.563-6.675-57.906-31.312
	c-7.344-24.637,6.674-50.563,31.312-57.907c24.637-7.344,50.563,6.675,57.906,31.312C361.665,325.32,347.647,351.246,323.01,358.59z
	"/>
<g>
	<path style="fill:#D5D6DB;" d="M296.415,269.37c-24.638,7.344-38.656,33.27-31.312,57.907
		c7.344,24.637,33.269,38.656,57.906,31.312c24.638-7.344,38.656-33.27,31.312-57.907
		C346.978,276.046,321.053,262.027,296.415,269.37z M320.989,351.809c-20.892,6.227-42.878-5.66-49.105-26.553
		c-6.228-20.892,5.661-42.877,26.553-49.105c20.892-6.227,42.878,5.66,49.105,26.553
		C353.769,323.596,341.88,345.582,320.989,351.809z"/>
	<ellipse style="fill:#D5D6DB;" cx="309.704" cy="313.961" rx="23.419" ry="23.419"/>
</g>
<g>
</g>
<g>
</g>
<g>
</g>
<g>
</g>
<g>
</g>
<g>
</g>
<g>
</g>
<g>
</g>
<g>
</g>
<g>
</g>
<g>
</g>
<g>
</g>
<g>
</g>
<g>
</g>
<g>
</g>
</svg>
