<?xml version="1.0" encoding="utf-8"?>
<!-- Generator: Adobe Illustrator 22.0.0, SVG Export Plug-In . SVG Version: 6.00 Build 0)  -->
<svg version="1.1" xmlns="http://www.w3.org/2000/svg" xmlns:xlink="http://www.w3.org/1999/xlink" x="0px" y="0px"
	 viewBox="0 0 1309.7 1009.5" enable-background="new 0 0 1309.7 1009.5" xml:space="preserve">
<g id="Background_Complete" display="none">
	<g display="inline">
		<rect y="595.9" fill="#EBEBEB" width="500" height="0.3"/>
		<rect x="416.8" y="612" fill="#EBEBEB" width="18.9" height="0.3"/>
		<rect x="293.1" y="610.2" fill="#EBEBEB" width="29.5" height="0.3"/>
		<rect x="368.7" y="602.7" fill="#EBEBEB" width="47.1" height="0.3"/>
		<rect x="52.5" y="604.4" fill="#EBEBEB" width="11" height="0.3"/>
		<rect x="72.3" y="604.4" fill="#EBEBEB" width="38.6" height="0.3"/>
		<rect x="171" y="608.6" fill="#EBEBEB" width="54.1" height="0.3"/>
		<path fill="#EBEBEB" d="M237,551.3H43.9c-3.1,0-5.7-2.6-5.7-5.7V274.1c0-3.1,2.6-5.7,5.7-5.7H237c3.1,0,5.7,2.6,5.7,5.7v271.4
			C242.7,548.7,240.2,551.3,237,551.3z M43.9,268.7c-3,0-5.5,2.4-5.5,5.5v271.4c0,3,2.4,5.5,5.5,5.5H237c3,0,5.5-2.4,5.5-5.5V274.1
			c0-3-2.4-5.5-5.5-5.5H43.9z"/>
		<path fill="#EBEBEB" d="M453.3,551.3H260.2c-3.1,0-5.7-2.6-5.7-5.7V274.1c0-3.1,2.6-5.7,5.7-5.7h193.1c3.1,0,5.7,2.6,5.7,5.7
			v271.4C459,548.7,456.5,551.3,453.3,551.3z M260.2,268.7c-3,0-5.5,2.4-5.5,5.5v271.4c0,3,2.4,5.5,5.5,5.5h193.1
			c3,0,5.5-2.4,5.5-5.5V274.1c0-3-2.4-5.5-5.5-5.5H260.2z"/>
	</g>
	<g display="inline">
		<g>
			<g>
				
					<rect x="62.8" y="293.7" transform="matrix(-1 -1.224647e-16 1.224647e-16 -1 200.176 773.8177)" fill="#E6E6E6" width="74.6" height="186.4"/>
				
					<rect x="52" y="293.7" transform="matrix(-1 -1.224647e-16 1.224647e-16 -1 187.4658 773.8177)" fill="#F5F5F5" width="83.5" height="186.4"/>
				
					<rect x="9.1" y="353.8" transform="matrix(-1.836970e-16 1 -1 -1.836970e-16 480.6418 293.1759)" fill="#FFFFFF" width="169.2" height="66.3"/>
			</g>
			<g>
				
					<rect x="154.3" y="293.7" transform="matrix(-1 -1.224647e-16 1.224647e-16 -1 383.2729 773.8177)" fill="#E6E6E6" width="74.6" height="186.4"/>
				
					<rect x="143.5" y="293.7" transform="matrix(-1 -1.224647e-16 1.224647e-16 -1 370.5626 773.8177)" fill="#F5F5F5" width="83.5" height="186.4"/>
				
					<rect x="100.7" y="353.8" transform="matrix(-1.836970e-16 1 -1 -1.836970e-16 572.1902 201.6274)" fill="#FFFFFF" width="169.2" height="66.3"/>
			</g>
		</g>
		<g>
			<rect x="218.9" y="522.6" fill="#E0E0E0" width="61.1" height="73.3"/>
			<polygon fill="#E0E0E0" points="280.1,522.6 218.9,522.6 205.2,508.6 266.3,508.6 			"/>
			<polygon fill="#F5F5F5" points="183.2,508.6 122,508.6 110.5,522.6 171.6,522.6 			"/>
			
				<rect x="110.5" y="522.6" transform="matrix(-1 -1.224647e-16 1.224647e-16 -1 329.4252 1118.4716)" fill="#F5F5F5" width="108.5" height="73.3"/>
			
				<rect x="211.1" y="542.2" transform="matrix(-1 -1.224647e-16 1.224647e-16 -1 430.0293 1118.4716)" fill="#F0F0F0" width="7.9" height="34.1"/>
			
				<rect x="147.4" y="535.2" transform="matrix(6.123234e-17 -1 1 6.123234e-17 -387.8276 712.2479)" fill="#F0F0F0" width="29.7" height="29.7"/>
			
				<rect x="110.6" y="535.2" transform="matrix(6.123234e-17 -1 1 6.123234e-17 -424.5856 675.4899)" fill="#F0F0F0" width="29.7" height="29.7"/>
			
				<rect x="161" y="553.1" transform="matrix(6.123234e-17 -1 1 6.123234e-17 -405.7158 730.1363)" fill="#F0F0F0" width="2.4" height="29.7"/>
			
				<rect x="124.2" y="553.1" transform="matrix(6.123234e-17 -1 1 6.123234e-17 -442.4738 693.3783)" fill="#F0F0F0" width="2.4" height="29.7"/>
			
				<rect x="161" y="560.2" transform="matrix(6.123234e-17 -1 1 6.123234e-17 -412.8024 737.2229)" fill="#F0F0F0" width="2.4" height="29.7"/>
			
				<rect x="124.2" y="560.2" transform="matrix(6.123234e-17 -1 1 6.123234e-17 -449.5604 700.4649)" fill="#F0F0F0" width="2.4" height="29.7"/>
			
				<rect x="161" y="567.3" transform="matrix(6.123234e-17 -1 1 6.123234e-17 -419.889 744.3096)" fill="#F0F0F0" width="2.4" height="29.7"/>
			
				<rect x="124.2" y="567.3" transform="matrix(6.123234e-17 -1 1 6.123234e-17 -456.647 707.5516)" fill="#F0F0F0" width="2.4" height="29.7"/>
			<rect x="218.9" y="542.2" fill="#E6E6E6" width="17.6" height="34.1"/>
		</g>
		<g>
			<g>
				
					<rect x="303.2" y="431.1" transform="matrix(-1 -1.224647e-16 1.224647e-16 -1 635.8069 1026.9983)" fill="#E6E6E6" width="29.4" height="164.7"/>
				<polygon fill="#F5F5F5" points="311.1,595.9 303.2,595.9 303.2,567.4 319.3,567.4 				"/>
				
					<rect x="387.4" y="431.1" transform="matrix(-1 -1.224647e-16 1.224647e-16 -1 804.1934 1026.9983)" fill="#E6E6E6" width="29.4" height="164.7"/>
				
					<rect x="303.2" y="431.1" transform="matrix(-1 -1.224647e-16 1.224647e-16 -1 697.4803 1017.1977)" fill="#F5F5F5" width="91" height="154.9"/>
				<polygon fill="#F5F5F5" points="386.4,595.9 394.3,595.9 394.3,567.4 378.2,567.4 				"/>
				
					<rect x="309.3" y="512" transform="matrix(-1 -1.224647e-16 1.224647e-16 -1 697.4797 1091.6108)" fill="#F0F0F0" width="78.9" height="67.7"/>
				
					<rect x="334.3" y="512" transform="matrix(-1 -1.224647e-16 1.224647e-16 -1 722.5115 1091.6108)" fill="#E6E6E6" width="53.8" height="67.7"/>
				
					<rect x="309.3" y="438.3" transform="matrix(-1 -1.224647e-16 1.224647e-16 -1 697.4797 944.2775)" fill="#F0F0F0" width="78.9" height="67.7"/>
				
					<rect x="334.3" y="438.3" transform="matrix(-1 -1.224647e-16 1.224647e-16 -1 722.5115 944.2775)" fill="#E6E6E6" width="53.8" height="67.7"/>
			</g>
			<path fill="#FFFFFF" d="M361.3,490.1c0,8.7-7.4,15.9-16.5,15.9h-8.2c-9.1,0-16.5-7.1-16.5-15.9H361.3z"/>
			<path fill="#FFFFFF" d="M361.3,479c0,8.7-7.4,15.9-16.5,15.9h-8.2c-9.1,0-16.5-7.1-16.5-15.9H361.3z"/>
			<path fill="#F5F5F5" d="M353,533.8h24.3c0,0-4.2,10.2-4.2,16.2s18.5,29.6-7.9,29.6c-26.4,0-7.9-23.6-7.9-29.6
				S353,533.8,353,533.8z"/>
			<path fill="#FFFFFF" d="M361.3,467.9c0,8.7-7.4,15.9-16.5,15.9h-8.2c-9.1,0-16.5-7.1-16.5-15.9H361.3z"/>
			<g>
				<path fill="#E6E6E6" d="M354,419.2c-0.9-26.1-1.9-73.8,0.1-86.9l3.3-2.5c0,0-0.7,23.9-1.1,63.8c-0.4,39.9-0.8,19.7-0.4,25.6H354
					z"/>
				<path fill="#E6E6E6" d="M346.5,349.9c-7.6-5.5-23.7-9.4-40.3-9.4c-6.5,0,19.5,6.4,30,13.5c8.2,5.5,17.2,14.7,20.1,19.8
					C354.8,363,354.1,355.4,346.5,349.9z"/>
				<path fill="#E6E6E6" d="M361.8,364.3c7-5.7,22.6-10.1,39.2-10.6c6.5-0.2-18.7,7-28.4,14.4c-7.6,5.7-15.5,15.2-17.9,20.4
					C354.9,377.6,354.8,370,361.8,364.3z"/>
				<g>
					<path fill="#F0F0F0" d="M355.3,431.1L355.3,431.1c-6.4,0-11.7-5-12.1-11.4l-1.1-8.8h26.3l-1.1,8.8
						C367,426.1,361.7,431.1,355.3,431.1z"/>
					<polygon fill="#F0F0F0" points="370.1,415.1 340.4,415.1 339.6,407.4 371,407.4 					"/>
				</g>
			</g>
		</g>
	</g>
</g>
<g id="Background_Simple" display="none">
	<g display="inline">
		<path fill="#407BFF" d="M192.1,308.6c-75.3,34.9-67.1,69.8-44.3,136c31.8,92.1,63.6,123.5,158.8,86.2c92-36,124.7-67.1,80.5-160.8
			C344.7,280.4,283.9,266.1,192.1,308.6z"/>
		<path opacity="0.9" fill="#FFFFFF" d="M192.1,308.6c-75.3,34.9-67.1,69.8-44.3,136c31.8,92.1,63.6,123.5,158.8,86.2
			c92-36,124.7-67.1,80.5-160.8C344.7,280.4,283.9,266.1,192.1,308.6z"/>
	</g>
</g>
<g id="Shadow_1_">
	<ellipse id="_x3C_Path_x3E__69_" fill="#F5F5F5" cx="709.8" cy="974.4" rx="599.9" ry="35"/>
</g>
<g id="Character_1_">
	<g>
		<polygon fill="#7F3E3B" points="1032.5,917.6 1010.2,922.3 995.1,871.7 1017.4,867 		"/>
		<path fill="#263238" d="M1008.8,919.9l24.3-5.1c0.9-0.2,1.8,0.3,2.2,1.1l8.6,18.8c0.9,2-0.3,4.2-2.4,4.6
			c-8.8,1.7-21.6,3.9-32.6,6.2c-12.9,2.7-14.7,5.5-30,7.4c-9.3,1.2-13-7.9-9.2-9.2c17.2-6.1,21-8.6,34.1-21
			C1005.3,921.4,1006.9,920.3,1008.8,919.9z"/>
		<polygon opacity="0.2" points="995.2,871.7 1002.9,897.8 1025.2,893.1 1017.4,867 		"/>
		<path fill="#803E3C" d="M871.3,193.5c-4.6,15.1-9.5,29.7-14.9,44.5c-5.5,14.7-11.3,29.2-18.1,43.9l-2.7,5.5l-3,5.6
			c-1,1.9-2.2,3.7-3.2,5.5c-1.1,1.8-2.2,3.6-3.4,5.3c-4.6,7.1-9.8,13.6-15.4,19.8c-5.5,6.2-11.5,11.9-17.8,17.2
			c-3.1,2.7-6.4,5.2-9.8,7.5c-3.4,2.4-6.6,4.6-10.6,6.9l-10.9-14.6c2.1-2.5,4.7-5.4,7-8.1c2.3-2.8,4.6-5.8,6.8-8.6
			c4.4-5.8,8.6-11.8,12.5-17.8c3.8-6.1,7.5-12.2,10.5-18.5c1.6-3.1,3-6.3,4.5-9.5l2-4.8l2-5.1c5.2-13.7,10.1-28.2,14.9-42.6
			l14.5-43.4L871.3,193.5z"/>
		<path fill="#407BFF" d="M887.6,169c7.8,20.8-33.8,94.9-33.8,94.9L807,227.8c0,0,13-32.5,29.1-56.4
			C852.5,146.8,879,146.1,887.6,169z"/>
		<path opacity="0.2" d="M878.4,189.5c-14.8,6.3-34.9,30.1-41.2,61.6l16.5,12.8c0,0,24.6-43.8,32.4-73.5
			C884.1,188.7,881.5,188.2,878.4,189.5z"/>
		<path fill="#407BFF" d="M860,153c0,0-27.5,51.9-1.4,182.7c37.5,0,106.2,0,124.4,0c0.9-19.1-11.1-93.9,7.3-183.9
			c0,0-21.3-4.3-41.6-5.3c-15.9-0.8-38.9-1.3-52.9,0C877.3,148.3,860,153,860,153z"/>
		<polygon fill="#7F3E3B" points="721.5,356.7 734.2,368.1 752.9,363.1 740.2,340.5 		"/>
		<path fill="#7F3E3B" d="M767.7,341.8l-27.5-1.3l12.7,22.6c0,0,20.4,2.2,22.3-12.9L767.7,341.8z"/>
		<path fill="#7F3E3B" d="M943.4,87c-3.3,17-6.7,48.2,5.2,59.5c0,0-5.4,11.4-37,11.4c-28.9,0-15.9-11.4-15.9-11.4
			c19-4.5,18.5-18.6,15.2-31.8L943.4,87z"/>
		<path opacity="0.2" d="M930.1,98.3l-19.2,16.4c0.8,3.1,1.4,6.3,1.6,9.4c4.6,7.2,17.3-3.4,19.6-14.5
			C932.9,106,930.8,100.1,930.1,98.3z"/>
		<path fill="#263238" d="M867,49.7c-6.4,10.7,7.6,40.2,23.8,37.5C907,84.5,879.1,29.4,867,49.7z"/>
		<path fill="#7F3E3B" d="M935.7,60.3c3.4,22.8,6.5,36-2.4,50c-13.4,21-43.5,16.6-53.6-4.8c-9.1-19.2-13.1-53.3,7.1-67
			C906.6,25.1,932.3,37.4,935.7,60.3z"/>
		<path fill="#263238" d="M937.6,30.2l-19.7,14.3c11.9,14.1-1.6,45.1,17.1,38C943.6,79.3,965.7,45.8,937.6,30.2z"/>
		<path fill="#263238" d="M914.1,12.6c-29.9,7.2-32.6-1.4-30.6-12.6c-22.4,3.7-39.1,21.3-26.1,42.6c14.4,23.7,58.4,4.4,66.2,4.3
			l11.2-2.7C960,36.8,951.3,3.6,914.1,12.6z"/>
		<path fill="#FFFFFF" d="M940.6,72.2c0,0-0.1,0-0.1,0c-5.7-0.1-23.2,0-23.3,0c-0.3,0-0.5-0.2-0.5-0.5c0-0.3,0.2-0.5,0.5-0.5
			c0.2,0,17.7-0.1,23.4,0c0.3,0,0.5,0.2,0.5,0.5C941,72,940.8,72.2,940.6,72.2z"/>
		<path fill="#7F3E3B" d="M951.1,83c-2.1,5.9-6.7,10.2-11.4,12.3c-7,3.2-11.7-2.8-10.7-10c0.9-6.5,5.6-16,13.1-16.1
			C949.5,69,953.5,76.3,951.1,83z"/>
		<polygon fill="#7F3E3B" points="907.1,946.3 884.4,946.3 883.6,893.6 906.3,893.6 		"/>
		<path fill="#263238" d="M883.5,943.6l24.8,0c0.9,0,1.7,0.6,1.9,1.6l4.5,20.2c0.5,2.1-1.1,4.1-3.3,4c-9-0.2-21.9-0.7-33.1-0.7
			c-13.2,0-24.5,0.7-40,0.7c-9.3,0-11.9-9.4-8-10.3c17.8-3.9,32.3-4.3,47.7-13.8C879.7,944.4,881.5,943.6,883.5,943.6z"/>
		<polygon opacity="0.2" points="883.6,893.6 884,920.8 906.7,920.8 906.4,893.6 		"/>
		<path fill="#407BFF" d="M874.1,947.1c-1.7,0.3-3.4,0.2-4.6-0.5c-0.9-0.6-1.5-1.5-1.6-2.7c-0.1-0.9,0.3-1.4,0.7-1.7
			c2.3-1.7,10.5,1.7,11.4,2.1c0.2,0.1,0.3,0.3,0.3,0.5c0,0.2-0.1,0.4-0.3,0.5C878.4,946,876.2,946.8,874.1,947.1z M869.9,942.9
			c-0.3,0-0.5,0.1-0.7,0.2c-0.1,0.1-0.3,0.3-0.2,0.7c0.1,0.9,0.4,1.5,1,1.9c1.4,0.9,4.4,0.5,8.2-0.9
			C875.4,943.7,871.7,942.6,869.9,942.9z"/>
		<path fill="#407BFF" d="M879.8,945.4c-0.1,0-0.2,0-0.3,0c-2.6-0.9-8-5.2-7.9-7.9c0-0.5,0.2-1.3,1.5-1.7c0.8-0.2,1.6-0.1,2.4,0.3
			c3,1.8,4.6,8.3,4.7,8.6c0,0.2,0,0.4-0.2,0.5C880,945.3,880,945.4,879.8,945.4z M873.7,936.8c-0.1,0-0.2,0-0.2,0.1
			c-0.7,0.2-0.7,0.5-0.7,0.7c0,1.6,3.5,4.9,6.1,6.3c-0.6-1.9-1.9-5.6-3.9-6.8C874.6,936.8,874.2,936.7,873.7,936.8z"/>
		<path fill="#263238" d="M858.6,335.8c0,0-16.7,213.2-19.8,284.1c-3.3,73.8,37.9,294.4,37.9,294.4h37c0,0-12.2-204.6-5.8-276.8
			c6.9-78.7,32.6-301.7,32.6-301.7H858.6z"/>
		<path opacity="0.2" d="M895.9,503.3c3.2,35.7,12.3,69.7,16.7,84.9c5.7-56,14-131.2,20.1-184.9
			C918.5,412.6,890.2,439.6,895.9,503.3z"/>
		<path fill="#263238" d="M901.6,335.8c0,0,9.5,212.5,24,279.1c15.9,72.9,63.2,279.3,63.2,279.3l41.7-8.8c0,0-28.1-195.6-37.1-267.8
			c-9.8-78.4-11.4-281.8-11.4-281.8H901.6z"/>
		<polygon fill="#407BFF" points="1033.3,885.7 988.4,895.1 981,879 1030.4,867.2 		"/>
		<polygon fill="#407BFF" points="920.7,915.2 874.8,915.2 870.8,897.9 921.5,898.7 		"/>
		<path fill="#263238" d="M904.2,73.5c0.4,1.8-0.3,3.5-1.5,3.8c-1.2,0.3-2.5-1-2.9-2.9c-0.4-1.8,0.3-3.5,1.5-3.8
			C902.6,70.4,903.8,71.7,904.2,73.5z"/>
		<path fill="#263238" d="M883.5,77.9c0.4,1.8-0.3,3.5-1.5,3.8c-1.2,0.3-2.5-1-2.9-2.9c-0.4-1.8,0.3-3.5,1.5-3.8
			C881.8,74.8,883.1,76.1,883.5,77.9z"/>
		<path fill="#630F0F" d="M888.9,77.7c0,0-1.9,11.5-5.5,17.6c3.9,2.3,9.1-0.2,9.1-0.2L888.9,77.7z"/>
		<path fill="#263238" d="M896.9,102.3c-0.3,0.1-0.6-0.2-0.6-0.5c-0.1-0.3,0.2-0.6,0.5-0.6c8.1-1.4,11-7.7,11-7.7
			c0.1-0.3,0.5-0.4,0.7-0.3c0.3,0.1,0.4,0.4,0.3,0.7C908.6,94.2,905.6,100.8,896.9,102.3z"/>
		<path fill="#263238" d="M913.9,57.4c-0.3,0.1-0.7,0.1-1-0.2c-4-2.9-7.8-1.5-7.8-1.4c-0.5,0.2-1.2-0.1-1.4-0.6
			c-0.2-0.6,0.1-1.2,0.6-1.4c0.2-0.1,5-1.9,9.9,1.7c0.5,0.4,0.6,1,0.2,1.5C914.4,57.2,914.2,57.3,913.9,57.4z"/>
		<path fill="#263238" d="M870.9,64.2c-0.2,0-0.3-0.1-0.5-0.2c-0.5-0.3-0.7-1-0.3-1.5c3.3-5.1,8.4-5.2,8.6-5.2
			c0.6,0,1.1,0.5,1.1,1.1c0,0.6-0.5,1.1-1.1,1.1l0,0c-0.2,0-4.1,0.1-6.8,4.2C871.8,64,871.3,64.2,870.9,64.2z"/>
		<path fill="#263238" d="M971.8,147.6l-5.9-0.5c-0.6-0.1-1.1,0.4-1.2,0.9c-16.3,87.8-7.2,181-7.2,181h6.5
			c-5.3-96.7,7-169.9,8.8-180.1C973,148.3,972.5,147.7,971.8,147.6z"/>
		<g>
			<path fill="#FFFFFF" d="M965,329c0-1.2-0.9-2.1-2.1-2.1h-4.5c-1.2,0-2.1,0.9-2.1,2.1c0,1,0.7,1.8,1.6,2v5.6
				c0,1.5,1.2,2.7,2.7,2.7c1.5,0,2.7-1.2,2.7-2.7V331C964.3,330.8,965,330,965,329z"/>
		</g>
		<g>
			<path fill="#263238" d="M873.3,148.8l-5.8,1.1c-0.5,0.1-0.9,0.5-0.9,1c-12.3,87.8,1.2,178.1,1.2,178.1h6.5
				c-9.7-95.6-1.1-167.6,0.4-178.9C874.8,149.3,874.1,148.7,873.3,148.8z"/>
			<path fill="#FFFFFF" d="M875.2,329c-0.1-1.2-1-2.1-2.2-2.1h-4.5c-1.1,0-2,0.9-2,2.1c0,1,0.8,1.8,1.7,2l0.3,5.6
				c0.1,1.5,1.4,2.7,2.9,2.7c1.5,0,2.7-1.2,2.6-2.7l-0.3-5.6C874.6,330.8,875.2,330,875.2,329z"/>
		</g>
		<path fill="#407BFF" d="M1000.4,925.3c-1.7,0.6-3.3,0.9-4.6,0.5c-1-0.4-1.7-1.1-2.1-2.3c-0.3-0.9,0-1.5,0.3-1.8
			c1.9-2.1,10.6-0.5,11.6-0.3c0.2,0,0.4,0.2,0.4,0.4c0,0.2,0,0.4-0.2,0.6C1004.4,923.3,1002.4,924.5,1000.4,925.3z M995.4,922
			c-0.3,0.1-0.5,0.2-0.6,0.4c-0.1,0.1-0.2,0.3-0.1,0.7c0.3,0.8,0.7,1.4,1.4,1.6c1.6,0.5,4.5-0.4,7.9-2.6
			C1001,921.7,997.1,921.4,995.4,922z"/>
		<path fill="#407BFF" d="M1005.6,922.4c-0.1,0-0.2,0-0.3,0c-2.7-0.4-8.9-3.5-9.3-6.1c-0.1-0.5-0.1-1.4,1.1-2
			c0.8-0.4,1.6-0.5,2.4-0.2c3.3,1.1,6.2,7.2,6.3,7.4c0.1,0.2,0.1,0.4-0.1,0.6C1005.8,922.3,1005.7,922.3,1005.6,922.4z M997.9,915.2
			c-0.1,0-0.1,0.1-0.2,0.1c-0.6,0.3-0.6,0.7-0.6,0.8c0.3,1.5,4.4,4.1,7.3,4.9c-1-1.7-3-5.1-5.2-5.8
			C998.8,915.1,998.3,915.1,997.9,915.2z"/>
		<path fill="#FFFFFF" d="M907.5,89c-7.3,1.5-14.9-4.6-16.8-13.8c-1.7-8.1,2.1-13.6,10.6-15.4c8.6-1.8,14.2,1.7,16,9.8
			C919.3,78.8,914.9,87.5,907.5,89z M901.6,60.8c-5.6,1.2-11.9,4.6-9.9,14.2c1.8,8.6,8.8,14.4,15.6,13c6.8-1.4,10.8-9.6,9-18.2
			C914.3,60.2,907.2,59.6,901.6,60.8z"/>
		<path fill="#FFFFFF" d="M877.5,95.4c-6.2,1.3-12.7-5.1-14.7-14.2c-2.3-11,4.3-14.1,8.5-15c4.2-0.9,11.5-0.7,13.8,10.2
			C887.1,85.6,883.7,94,877.5,95.4z M871.5,67.2c-4.7,1-9.8,4.2-7.7,13.8c1.8,8.6,7.9,14.6,13.5,13.4c5.6-1.2,8.7-9.2,6.9-17.8
			C882.2,67,876.2,66.2,871.5,67.2z"/>
		<path fill="#FFFFFF" d="M891.2,69.5c-0.1,0-0.2,0-0.2,0c-3.2-0.9-5.8-0.3-8.1,1.7c-0.2,0.2-0.5,0.2-0.7,0c-0.2-0.2-0.2-0.5,0-0.7
			c2.5-2.3,5.6-2.9,9-1.9c0.3,0.1,0.4,0.4,0.3,0.6C891.5,69.4,891.4,69.5,891.2,69.5z"/>
		<polygon fill="#263238" points="913.5,158 918.1,154.7 927.8,164 		"/>
		<path fill="#FFFFFF" d="M918.1,154.7c0,0,8,11.2,9.5,19.3c9.5-4,27.6-13.9,30-27.8c-3.7-0.7-9.9-4.6-9.9-4.6
			S938.1,149.6,918.1,154.7z"/>
		<polygon fill="#263238" points="913.5,158 911.7,154.2 899.2,164 		"/>
		<path fill="#FFFFFF" d="M911.7,154.2c0,0-8.1,7.2-9.2,17.8c-9.5-4-13.3-16.9-10.8-25.5c5.2-2.5,11.3-3.7,11.3-3.7
			S902,151.2,911.7,154.2z"/>
		<polygon fill="#7F3E3B" points="896.6,349.3 912.8,366.3 929,358.7 915.3,333.1 		"/>
		<path fill="#7F3E3B" d="M942.7,334.4l-27.5-1.3l13.7,25.6c0,0,19.4-0.8,21.3-15.9L942.7,334.4z"/>
		<path fill="#803E3C" d="M1013.1,183.9c4.1,16.8,7.6,33.6,10.9,50.6c1.6,8.5,3.1,17,4.5,25.6c1.4,8.6,2.7,17.2,3.8,26.1
			c0.1,0.7,0.4,3.2,0.4,5.1c0,2-0.1,4-0.4,5.9c-0.6,3.9-1.8,7.5-3.3,10.7c-3.1,6.4-7.2,10.9-11.3,14.7c-8.2,7.5-16.9,12-25.4,16
			c-17.2,7.6-34.2,12.1-52.2,15l-4.5-17.6c7.4-3.1,15.2-6.5,22.5-10.2c7.4-3.6,14.6-7.4,21.1-11.7c6.6-4.1,12.6-8.8,16.6-13.4
			c2-2.3,3.3-4.5,3.7-6c0.2-0.7,0.2-1.3,0.2-1.6c0-0.2-0.1-0.3-0.1-0.5c-0.1-0.3,0,0.1-0.3-1.3c-3.3-16-7.3-32.8-11.1-49.3
			c-3.8-16.6-7.6-33.3-11-49.9L1013.1,183.9z"/>
		<path fill="#407BFF" d="M990.3,151.8c30.9,5.6,44.6,82.9,44.6,82.9l-49.7,30.5c0,0-15.8-45.7-15-74.4
			C971,163.5,966.8,147.6,990.3,151.8z"/>
	</g>
</g>
<g id="Server">
	<g>
		<g>
			<rect x="461.9" y="374.6" fill="#407BFF" width="318.6" height="599.8"/>
			<g>
				<rect x="491.2" y="367.3" fill="#407BFF" width="348.4" height="7.3"/>
				<rect x="491.2" y="367.3" opacity="0.3" width="348.4" height="7.3"/>
			</g>
			<g>
				
					<rect x="780.5" y="374.6" transform="matrix(-1 -1.224647e-16 1.224647e-16 -1 1649.4865 1349.0339)" fill="#407BFF" width="88.4" height="599.8"/>
				
					<rect x="780.5" y="374.6" transform="matrix(-1 -1.224647e-16 1.224647e-16 -1 1649.4865 1349.0339)" opacity="0.2" width="88.4" height="599.8"/>
			</g>
			<path opacity="0.1" d="M756.7,426.9H735c-0.5,0-0.9-0.4-0.9-0.9v-21.8c0-0.5,0.4-0.9,0.9-0.9h21.7c0.5,0,0.9,0.4,0.9,0.9V426
				C757.7,426.5,757.2,426.9,756.7,426.9z"/>
			<path opacity="0.3" d="M708.1,426.9h-21.7c-0.5,0-0.9-0.4-0.9-0.9v-21.8c0-0.5,0.4-0.9,0.9-0.9h21.7c0.5,0,0.9,0.4,0.9,0.9V426
				C709,426.5,708.6,426.9,708.1,426.9z"/>
			<path opacity="0.3" d="M659.5,426.9h-21.7c-0.5,0-0.9-0.4-0.9-0.9v-21.8c0-0.5,0.4-0.9,0.9-0.9h21.7c0.5,0,0.9,0.4,0.9,0.9V426
				C660.4,426.5,660,426.9,659.5,426.9z"/>
			<path opacity="0.1" d="M610.9,426.9h-21.7c-0.5,0-0.9-0.4-0.9-0.9v-21.8c0-0.5,0.4-0.9,0.9-0.9h21.7c0.5,0,0.9,0.4,0.9,0.9V426
				C611.8,426.5,611.4,426.9,610.9,426.9z"/>
			<path opacity="0.3" d="M562.2,426.9h-21.7c-0.5,0-0.9-0.4-0.9-0.9v-21.8c0-0.5,0.4-0.9,0.9-0.9h21.7c0.5,0,0.9,0.4,0.9,0.9V426
				C563.2,426.5,562.8,426.9,562.2,426.9z"/>
			<path opacity="0.3" d="M513.6,426.9h-21.7c-0.5,0-0.9-0.4-0.9-0.9v-21.8c0-0.5,0.4-0.9,0.9-0.9h21.7c0.5,0,0.9,0.4,0.9,0.9V426
				C514.5,426.5,514.1,426.9,513.6,426.9z"/>
			<g>
				<g opacity="0.1">
					<rect x="472.3" y="440.5" width="297.8" height="93.9"/>
				</g>
				<path fill="#407BFF" d="M756,521h-13.8c-0.7,0-1.3-0.6-1.3-1.3v-64.5c0-0.7,0.6-1.3,1.3-1.3H756c0.7,0,1.3,0.6,1.3,1.3v64.5
					C757.3,520.4,756.7,521,756,521z"/>
				<path opacity="0.1" d="M722.1,521h-13.8c-0.7,0-1.3-0.6-1.3-1.3v-64.5c0-0.7,0.6-1.3,1.3-1.3h13.8c0.7,0,1.3,0.6,1.3,1.3v64.5
					C723.4,520.4,722.8,521,722.1,521z"/>
				<path fill="#407BFF" d="M688.2,521h-13.8c-0.7,0-1.3-0.6-1.3-1.3v-64.5c0-0.7,0.6-1.3,1.3-1.3h13.8c0.7,0,1.3,0.6,1.3,1.3v64.5
					C689.5,520.4,688.9,521,688.2,521z"/>
				<path fill="#407BFF" d="M654.3,521h-13.8c-0.7,0-1.3-0.6-1.3-1.3v-64.5c0-0.7,0.6-1.3,1.3-1.3h13.8c0.7,0,1.3,0.6,1.3,1.3v64.5
					C655.6,520.4,655,521,654.3,521z"/>
				<g>
					<path opacity="0.3" fill="#FFFFFF" d="M557.6,472.5c0-6,4.9-10.8,10.8-10.8s10.8,4.9,10.8,10.8c0,6-4.9,10.8-10.8,10.8
						S557.6,478.5,557.6,472.5z"/>
					<path opacity="0.1" d="M610.3,502.4c0,6-4.9,10.8-10.8,10.8s-10.8-4.9-10.8-10.8c0-6,4.9-10.8,10.8-10.8
						S610.3,496.4,610.3,502.4z"/>
				</g>
				<g>
					<path opacity="0.1" d="M588.6,472.5c0-6,4.9-10.8,10.8-10.8s10.8,4.9,10.8,10.8c0,6-4.9,10.8-10.8,10.8
						S588.6,478.5,588.6,472.5z"/>
					<path opacity="0.1" d="M579.3,502.4c0,6-4.9,10.8-10.8,10.8s-10.8-4.9-10.8-10.8c0-6,4.9-10.8,10.8-10.8
						S579.3,496.4,579.3,502.4z"/>
				</g>
				
					<ellipse transform="matrix(0.7071 -0.7071 0.7071 0.7071 -193.9966 506.5477)" opacity="0.3" fill="#FFFFFF" cx="514.5" cy="487.4" rx="23.5" ry="23.5"/>
			</g>
			<g>
				<g opacity="0.1">
					<rect x="472.3" y="547.3" width="297.8" height="93.9"/>
				</g>
				<path fill="#407BFF" d="M756,627.8h-13.8c-0.7,0-1.3-0.6-1.3-1.3V562c0-0.7,0.6-1.3,1.3-1.3H756c0.7,0,1.3,0.6,1.3,1.3v64.5
					C757.3,627.2,756.7,627.8,756,627.8z"/>
				<path opacity="0.1" d="M722.1,627.8h-13.8c-0.7,0-1.3-0.6-1.3-1.3V562c0-0.7,0.6-1.3,1.3-1.3h13.8c0.7,0,1.3,0.6,1.3,1.3v64.5
					C723.4,627.2,722.8,627.8,722.1,627.8z"/>
				<path fill="#407BFF" d="M688.2,627.8h-13.8c-0.7,0-1.3-0.6-1.3-1.3V562c0-0.7,0.6-1.3,1.3-1.3h13.8c0.7,0,1.3,0.6,1.3,1.3v64.5
					C689.5,627.2,688.9,627.8,688.2,627.8z"/>
				<path fill="#407BFF" d="M654.3,627.8h-13.8c-0.7,0-1.3-0.6-1.3-1.3V562c0-0.7,0.6-1.3,1.3-1.3h13.8c0.7,0,1.3,0.6,1.3,1.3v64.5
					C655.6,627.2,655,627.8,654.3,627.8z"/>
				<g>
					<path opacity="0.3" fill="#FFFFFF" d="M557.6,579.3c0-6,4.9-10.8,10.8-10.8s10.8,4.9,10.8,10.8c0,6-4.9,10.8-10.8,10.8
						S557.6,585.2,557.6,579.3z"/>
					<circle opacity="0.3" fill="#FFFFFF" cx="599.4" cy="609.2" r="10.8"/>
				</g>
				<g>
					<path opacity="0.1" d="M588.6,579.3c0-6,4.9-10.8,10.8-10.8s10.8,4.9,10.8,10.8c0,6-4.9,10.8-10.8,10.8
						S588.6,585.2,588.6,579.3z"/>
					<circle opacity="0.1" cx="568.5" cy="609.2" r="10.8"/>
				</g>
				<circle opacity="0.3" fill="#FFFFFF" cx="514.5" cy="594.2" r="23.5"/>
			</g>
			<g>
				<g opacity="0.1">
					<rect x="472.3" y="654.1" width="297.8" height="93.9"/>
				</g>
				<path fill="#407BFF" d="M756,734.6h-13.8c-0.7,0-1.3-0.6-1.3-1.3v-64.5c0-0.7,0.6-1.3,1.3-1.3H756c0.7,0,1.3,0.6,1.3,1.3v64.5
					C757.3,734,756.7,734.6,756,734.6z"/>
				<path opacity="0.1" d="M722.1,734.6h-13.8c-0.7,0-1.3-0.6-1.3-1.3v-64.5c0-0.7,0.6-1.3,1.3-1.3h13.8c0.7,0,1.3,0.6,1.3,1.3v64.5
					C723.4,734,722.8,734.6,722.1,734.6z"/>
				<path fill="#407BFF" d="M688.2,734.6h-13.8c-0.7,0-1.3-0.6-1.3-1.3v-64.5c0-0.7,0.6-1.3,1.3-1.3h13.8c0.7,0,1.3,0.6,1.3,1.3
					v64.5C689.5,734,688.9,734.6,688.2,734.6z"/>
				<path fill="#407BFF" d="M654.3,734.6h-13.8c-0.7,0-1.3-0.6-1.3-1.3v-64.5c0-0.7,0.6-1.3,1.3-1.3h13.8c0.7,0,1.3,0.6,1.3,1.3
					v64.5C655.6,734,655,734.6,654.3,734.6z"/>
				<g>
					<path opacity="0.3" fill="#FFFFFF" d="M557.6,686c0-6,4.9-10.8,10.8-10.8s10.8,4.9,10.8,10.8s-4.9,10.8-10.8,10.8
						S557.6,692,557.6,686z"/>
					<circle opacity="0.3" fill="#FFFFFF" cx="599.4" cy="716" r="10.8"/>
				</g>
				<g>
					<path opacity="0.1" d="M588.6,686c0-6,4.9-10.8,10.8-10.8s10.8,4.9,10.8,10.8s-4.9,10.8-10.8,10.8S588.6,692,588.6,686z"/>
					<circle opacity="0.1" cx="568.5" cy="716" r="10.8"/>
				</g>
				<circle opacity="0.1" cx="514.5" cy="701" r="23.5"/>
			</g>
			<g>
				<g opacity="0.1">
					<rect x="472.3" y="760.9" width="297.8" height="93.9"/>
				</g>
				<path fill="#407BFF" d="M756,841.3h-13.8c-0.7,0-1.3-0.6-1.3-1.3v-64.5c0-0.7,0.6-1.3,1.3-1.3H756c0.7,0,1.3,0.6,1.3,1.3V840
					C757.3,840.8,756.7,841.3,756,841.3z"/>
				<path opacity="0.1" d="M722.1,841.3h-13.8c-0.7,0-1.3-0.6-1.3-1.3v-64.5c0-0.7,0.6-1.3,1.3-1.3h13.8c0.7,0,1.3,0.6,1.3,1.3V840
					C723.4,840.8,722.8,841.3,722.1,841.3z"/>
				<path fill="#407BFF" d="M688.2,841.3h-13.8c-0.7,0-1.3-0.6-1.3-1.3v-64.5c0-0.7,0.6-1.3,1.3-1.3h13.8c0.7,0,1.3,0.6,1.3,1.3V840
					C689.5,840.8,688.9,841.3,688.2,841.3z"/>
				<path fill="#407BFF" d="M654.3,841.3h-13.8c-0.7,0-1.3-0.6-1.3-1.3v-64.5c0-0.7,0.6-1.3,1.3-1.3h13.8c0.7,0,1.3,0.6,1.3,1.3V840
					C655.6,840.8,655,841.3,654.3,841.3z"/>
				<g>
					<circle opacity="0.3" fill="#FFFFFF" cx="568.5" cy="792.8" r="10.8"/>
					<circle opacity="0.3" fill="#FFFFFF" cx="599.4" cy="822.8" r="10.8"/>
				</g>
				<g>
					<circle opacity="0.3" fill="#FFFFFF" cx="599.4" cy="792.8" r="10.8"/>
					<circle opacity="0.1" cx="568.5" cy="822.8" r="10.8"/>
				</g>
				<circle opacity="0.3" fill="#FFFFFF" cx="514.5" cy="807.8" r="23.5"/>
			</g>
			<g>
				<g opacity="0.1">
					<rect x="472.3" y="867.6" width="297.8" height="93.9"/>
				</g>
				<path fill="#407BFF" d="M756,948.1h-13.8c-0.7,0-1.3-0.6-1.3-1.3v-64.5c0-0.7,0.6-1.3,1.3-1.3H756c0.7,0,1.3,0.6,1.3,1.3v64.5
					C757.3,947.6,756.7,948.1,756,948.1z"/>
				<path opacity="0.1" d="M722.1,948.1h-13.8c-0.7,0-1.3-0.6-1.3-1.3v-64.5c0-0.7,0.6-1.3,1.3-1.3h13.8c0.7,0,1.3,0.6,1.3,1.3v64.5
					C723.4,947.6,722.8,948.1,722.1,948.1z"/>
				<path fill="#407BFF" d="M688.2,948.1h-13.8c-0.7,0-1.3-0.6-1.3-1.3v-64.5c0-0.7,0.6-1.3,1.3-1.3h13.8c0.7,0,1.3,0.6,1.3,1.3
					v64.5C689.5,947.6,688.9,948.1,688.2,948.1z"/>
				<path fill="#407BFF" d="M654.3,948.1h-13.8c-0.7,0-1.3-0.6-1.3-1.3v-64.5c0-0.7,0.6-1.3,1.3-1.3h13.8c0.7,0,1.3,0.6,1.3,1.3
					v64.5C655.6,947.6,655,948.1,654.3,948.1z"/>
				<g>
					<circle opacity="0.3" fill="#FFFFFF" cx="568.5" cy="899.6" r="10.8"/>
					<circle opacity="0.3" fill="#FFFFFF" cx="599.4" cy="929.6" r="10.8"/>
				</g>
				<g>
					<circle opacity="0.3" fill="#FFFFFF" cx="599.4" cy="899.6" r="10.8"/>
					<circle opacity="0.1" cx="568.5" cy="929.6" r="10.8"/>
				</g>
				<circle opacity="0.3" fill="#FFFFFF" cx="514.5" cy="914.6" r="23.5"/>
			</g>
		</g>
		<g>
			<polygon fill="#407BFF" points="470.8,228.3 700.7,228.3 733,360 503.1,360 			"/>
			<polygon fill="#407BFF" points="568.1,360 569,367.3 814.6,367.3 813.7,360 			"/>
			<g>
				<polygon fill="#407BFF" points="693.8,228.3 726.1,360 726.1,360 727,367.3 504,367.3 503.1,360 470.8,228.3 				"/>
				<polygon opacity="0.6" fill="#FFFFFF" points="693.8,228.3 726.1,360 726.1,360 727,367.3 504,367.3 503.1,360 470.8,228.3 				
					"/>
			</g>
		</g>
		<g>
			<path opacity="0.3" fill="#407BFF" d="M601.1,150.4l-1.4-0.8c-1.8-1-45.3-24.1-51.4-54.4c-5.9-29.3-4.6-57.8-4.5-59l0.1-2.7
				l2.7-0.2c0.3,0,32.7-2.5,53.6-9.2l0.9-0.3l0.9,0.3c20.9,6.7,53.3,9.2,53.6,9.2l2.7,0.2l0.1,2.7c0.1,1.2,1.4,29.7-4.5,59
				c-6.1,30.4-49.6,53.5-51.4,54.4L601.1,150.4z M549.9,39.2c-0.2,7.8-0.2,31.3,4.5,54.8c5,24.6,39.3,45.2,46.8,49.4
				c7.5-4.2,41.8-24.8,46.8-49.4c4.7-23.4,4.7-47,4.5-54.8c-8.3-0.8-33.2-3.4-51.3-8.9C583,35.9,558.1,38.5,549.9,39.2z"/>
			<path fill="#407BFF" d="M601.1,133.2c-13-7.9-34.8-24.3-38.1-41c-3.5-17.3-4.3-34.5-4.4-45.1c11-1.2,28.3-3.7,42.5-7.7
				c14.3,4.1,31.5,6.5,42.5,7.7c-0.1,10.6-0.9,27.9-4.4,45.1C635.9,108.9,614.1,125.3,601.1,133.2z"/>
		</g>
		<path opacity="0.3" fill="#407BFF" d="M381.5,974.4h-6.2v-723c0-37,30.1-67.1,67.1-67.1h138c9.7,0,17.6-7.9,17.6-17.6h6.2
			c0,13.1-10.7,23.8-23.8,23.8h-138c-33.6,0-61,27.3-61,61V974.4z"/>
	</g>
</g>
</svg>
