<?xml version="1.0" encoding="UTF-8"?>
<svg enable-background="new 0 0 512 512" version="1.1" viewBox="0 0 512 512" xml:space="preserve" xmlns="http://www.w3.org/2000/svg">
	<path
        d="m494.4 61.143h-476.81c-9.717 0-17.595 7.877-17.595 17.595v354.52c0 9.718 7.878 17.595 17.595 17.595h476.81c9.718 0 17.595-7.878 17.595-17.595v-354.52c1e-3 -9.718-7.877-17.595-17.594-17.595z"
        fill="#1685FB"/>
    <path d="m512 433.26v-354.52c0-9.725-7.881-17.596-17.596-17.596h-28.33c9.715 0 17.596 7.871 17.596 17.596v354.52c0 9.725-7.881 17.596-17.596 17.596h28.33c9.715 0 17.596-7.87 17.596-17.595z"
          fill="#4C60E1"/>
    <path d="M512,137.338V78.741c0-9.725-7.881-17.596-17.596-17.596H17.596      C7.881,61.146,0,69.017,0,78.741l0,58.597H512z" fill="#E3F4FF"/>
    <path d="m512 137.34v-58.597c0-9.725-7.881-17.596-17.596-17.596h-28.33c9.715 0 17.596 7.871 17.596 17.596v58.597h28.33z" fill="#BDDFF4"/>
    <path d="m99.007 106.9h-0.097c-4.267 0-7.726-3.459-7.726-7.726s3.459-7.726 7.726-7.726 7.775 3.459 7.775 7.726-3.411 7.726-7.678 7.726z" fill="#54DDAC"/>
    <path d="m73.692 106.97c-4.23 0-7.68-3.406-7.724-7.646-0.045-4.267 3.378-7.762 7.645-7.807 4.221-0.057 7.81 3.378 7.855 7.645 0.045 4.268-3.33 7.762-7.597 7.807l-0.097 1e-3h-0.082z"
          fill="#FDC142"/>
    <path d="m48.475 107.04c-4.23 0-7.681-3.406-7.724-7.646-0.044-4.268 3.379-7.763 7.646-7.807h0.081c4.231 0 7.729 3.406 7.773 7.646 0.044 4.267-3.33 7.762-7.598 7.806l-0.097 1e-3h-0.081z"
          fill="#FC3E81"/>
    <path d="m172.84 107.04h-26.813c-4.267 0-7.726-3.459-7.726-7.726s3.459-7.726 7.726-7.726h26.813c4.267 0 7.726 3.459 7.726 7.726s-3.459 7.726-7.726 7.726z" fill="#BDDFF4"/>
    <path
        d="m166.3 247.39h-6.701v-9.14c0-7.62-6.177-13.797-13.797-13.797s-13.797 6.177-13.797 13.797v9.14h-32.196l23.184-39.25c3.875-6.561 1.698-15.021-4.863-18.896-6.561-3.876-15.021-1.698-18.896 4.862l-35.478 60.064c-2.519 4.265-2.558 9.554-0.103 13.856 2.456 4.302 7.029 6.958 11.983 6.958h56.37v41.58c0 7.62 6.177 13.797 13.797 13.797s13.797-6.177 13.797-13.797v-41.58h6.701c7.62 0 13.797-6.177 13.797-13.797-1e-3 -7.62-6.178-13.797-13.798-13.797z"
        fill="#FD9E28"/>
    <path
        d="m436.36 247.39h-6.701v-9.14c0-7.62-6.177-13.797-13.797-13.797s-13.797 6.177-13.797 13.797v9.14h-32.197l23.184-39.25c3.875-6.561 1.698-15.021-4.863-18.896-6.561-3.876-15.021-1.698-18.896 4.862l-35.478 60.064c-2.519 4.265-2.558 9.554-0.103 13.856 2.456 4.302 7.029 6.958 11.983 6.958h56.37v41.58c0 7.62 6.177 13.797 13.797 13.797s13.797-6.177 13.797-13.797v-41.58h6.701c7.62 0 13.797-6.177 13.797-13.797s-6.177-13.797-13.797-13.797z"
        fill="#FD9E28"/>
    <path
        d="m273.66 330.36h-35.309c-17.468 0-31.68-14.212-31.68-31.68v-79.676c0-17.469 14.212-31.68 31.68-31.68h35.309c17.468 0 31.68 14.212 31.68 31.68v79.676c0 17.469-14.212 31.68-31.68 31.68zm-29.854-112.9c-3.862 0-7.005 3.143-7.005 7.005v68.764c0 3.862 3.143 7.005 7.005 7.005h24.398c3.862 0 7.005-3.142 7.005-7.005v-68.764c0-3.862-3.143-7.005-7.005-7.005h-24.398z"
        fill="#FD9E28"/>
    <path d="m372.58 418.45c-4.267 0-7.775-3.459-7.775-7.726 0-4.268 3.41-7.726 7.677-7.726h0.098c4.267 0 7.726 3.459 7.726 7.726s-3.459 7.726-7.726 7.726z" fill="#E3F4FF"/>
    <path d="m398.16 418.52c-4.267 0-7.776-3.459-7.776-7.726s3.41-7.726 7.678-7.726h0.098c4.267 0 7.726 3.459 7.726 7.726s-3.459 7.726-7.726 7.726z" fill="#E3F4FF"/>
    <path d="m423.76 418.6h-0.081c-4.267-0.044-7.739-3.539-7.696-7.806 0.044-4.24 3.446-7.648 7.676-7.648h0.081l0.098 1e-3c4.267 0.044 7.69 3.538 7.646 7.806-0.043 4.239-3.495 7.647-7.724 7.647z"
          fill="#E3F4FF"/>
    <path d="m91.254 386.43h-25.588c-4.267 0-7.726-3.459-7.726-7.726s3.459-7.726 7.726-7.726h25.588c4.267 0 7.726 3.459 7.726 7.726s-3.459 7.726-7.726 7.726z" fill="#E3F4FF"/>
    <path d="m116.84 418.52h-51.176c-4.267 0-7.726-3.459-7.726-7.726s3.459-7.726 7.726-7.726h51.176c4.267 0 7.726 3.459 7.726 7.726s-3.459 7.726-7.726 7.726z" fill="#E3F4FF"/>
</svg>
