<?xml version="1.0" encoding="utf-8"?><!-- Generator: Adobe Illustrator 22.0.0, SVG Export Plug-In . SVG Version: 6.00 Build 0)  --><svg version="1.1" id="Capa_1" xmlns="http://www.w3.org/2000/svg" xmlns:xlink="http://www.w3.org/1999/xlink" x="0px" y="0px" viewBox="0 0 300 300" style="enable-background:new 0 0 300 300;" xml:space="preserve"><style type="text/css">	.st0{fill:#876929;}	.st1{fill:#D9A741;}</style><g>	<path class="st0" d="M82.2,47.8l-60.8,96.9l60.8,96.9l1.1-0.8L82.5,48L82.2,47.8"/>	<path class="st1" d="M150.2,224.2l-68,17.4V47.8l68,17.4V224.2"/>	<path class="st0" d="M278.6,72.2l-32.8,5.4L170.6,0l-37.4,16.4l4.9,9.2l-26.5,10.6v244.6l38.5,19.2l0.6-0.5L150.2,48l81.5,123.6		L278.6,72.2"/>	<path class="st1" d="M170.6,0l100.2,50.1l-39.6,71.9L170.6,0"/>	<path class="st1" d="M278.6,72.2l0,163.5L150.2,300l0-279.2l81,147L278.6,72.2"/></g></svg>
