<?xml version="1.0" encoding="utf-8"?>
<!-- Generator: Adobe Illustrator 22.0.0, SVG Export Plug-In . SVG Version: 6.00 Build 0)  -->
<svg version="1.1" id="Capa_1" xmlns="http://www.w3.org/2000/svg" x="0px" y="0px"
     viewBox="0 0 512 512" style="enable-background:new 0 0 512 512;" xml:space="preserve">
<style type="text/css">
	.st0{fill:#AF252A;}
</style>
    <g>
	<path class="st0" d="M256,211.7c24.5,0,44.3,19.8,44.3,44.3c0,24.5-19.8,44.3-44.3,44.3c-24.5,0-44.3-19.8-44.3-44.3
		C211.7,231.5,231.5,211.7,256,211.7L256,211.7z M105,256c0-83.4,67.6-151,151-151c83.4,0,151,67.6,151,151c0,5.5-0.3,11-0.9,16.3
		c-1.1,14.7,9.7,26,24.3,26c24.8,0,27.5-32,27.5-42.3c0-111.5-90.4-201.8-201.8-201.8S54.2,144.5,54.2,256
		c0,111.5,90.4,201.8,201.8,201.8c59.2,0,112.5-25.5,149.4-66.1l41.5,34.8C400,479,331.8,512,256,512C114.6,512,0,397.4,0,256
		C0,114.6,114.6,0,256,0c141.4,0,256,114.6,256,256c0,56.8-27.1,103-81.4,103c-23.9,0-38.5-11-46.4-23.2
		C357.5,378.5,310.1,407,256,407C172.6,407,105,339.4,105,256L105,256z M256,159.2c-53.5,0-96.8,43.3-96.8,96.8
		c0,53.5,43.4,96.8,96.8,96.8c53.5,0,96.8-43.4,96.8-96.8C352.8,202.5,309.5,159.2,256,159.2L256,159.2z"/>
</g>
</svg>
