<?xml version="1.0" encoding="utf-8"?>
<!-- Generator: Adobe Illustrator 22.0.0, SVG Export Plug-In . SVG Version: 6.00 Build 0)  -->
<svg version="1.1" id="Capa_1" xmlns="http://www.w3.org/2000/svg" xmlns:xlink="http://www.w3.org/1999/xlink" x="0px" y="0px"
	 viewBox="0 0 300 300" style="enable-background:new 0 0 300 300;" xml:space="preserve">
<style type="text/css">
	.st0{fill:#FFFFFF;}
	.st1{fill:#E4E4E4;}
	.st2{fill:#FFE000;}
	.st3{fill:#22252B;}
</style>
<path class="st0" d="M2,13.1v14.7c6.1,0.2,10.9,5.1,10.9,11.2S7.9,50.1,2,50.2V65c6.1,0.2,10.9,5.1,10.9,11.2
	c0,6.1-5,11.1-10.9,11.2v14.7c6.1,0.2,10.9,5.1,10.9,11.2s-5,11.1-10.9,11.2v14.7c6.1,0.2,10.9,5.1,10.9,11.2s-5,11.1-10.9,11.2
	v14.7c6.1,0.2,10.9,5.1,10.9,11.2c0,6.1-5,11.1-10.9,11.2v14.7c6.1,0.2,10.9,5.1,10.9,11.2S7.9,236,2,236.2v14.7
	c6.1,0.2,10.9,5.1,10.9,11.2s-5,11.1-10.9,11.2v14.7c6.1,0.2,10.9,5.1,10.9,11.2h14.7c0-6.1,5-11.2,11.2-11.2
	c6.1,0,11.2,5,11.2,11.2h14.7c0-6.1,5-11.2,11.2-11.2c6.1,0,11.2,5,11.2,11.2H102c0-6.1,5-11.2,11.2-11.2c6.1,0,11.2,5,11.2,11.2
	h14.7c0-6.1,5-11.2,11.2-11.2c6.1,0,11.2,5,11.2,11.2h14.7c0-6.1,5-11.2,11.2-11.2c6.1,0,11.2,5,11.2,11.2h14.7
	c0-6.1,5-11.2,11.2-11.2c6.1,0,11.2,5,11.2,11.2h14.7c0-6.1,5-11.2,11.2-11.2c6.1,0,11.2,5,11.2,11.2h14.7c0-6.1,5-11.2,11.2-11.2
	h0.2v-15.9h-0.2c-6.1,0-11.2-5-11.2-11.2c0-6.3,5-11.2,11.2-11.2h0.2V235h-0.2c-6.1,0-11.2-5-11.2-11.2c0-6.1,5-11.2,11.2-11.2h0.2
	v-14.7h-0.2c-6.1,0-11.2-5-11.2-11.2c0-6.1,5-11.2,11.2-11.2h0.2v-14.7h-0.2c-6.1,0-11.2-5-11.2-11.2s5-11.2,11.2-11.2h0.2v-14.7
	h-0.2c-6.1,0-11.2-5-11.2-11.2c0-6.1,5-11.2,11.2-11.2h0.2V87.1h-0.2c-6.1,0-11.2-5-11.2-11.2c0-6.1,5-11.2,11.2-11.2h0.2V49.9h-0.2
	c-6.1,0-11.2-5-11.2-11.2c0-6.1,5-11.2,11.2-11.2h0.2V12.7h-0.2c-6.1,0-11.2-5-11.2-11.2h-14.7c0,6.1-5,11.2-11.2,11.2
	c-6.1,0-11.2-5-11.2-11.2H236c0,6.1-5,11.2-11.2,11.2c-6.1,0-11.2-5-11.2-11.2h-14.7c0,6.1-5,11.2-11.2,11.2
	c-6.1,0-11.2-5-11.2-11.2h-14.7c0,6.1-5,11.2-11.2,11.2s-11.2-5-11.2-11.2h-14.7c0,6.1-5,11.2-11.2,11.2c-6.1,0-11.2-5-11.2-11.2
	H87.3c0,6.1-5,11.2-11.2,11.2c-6.1,0-11.2-5-11.2-11.2H50.1c0,6.1-5,11.2-11.2,11.2c-6.1,0-11.2-5-11.2-11.2H12.9
	C12.9,8.1,8.1,13.1,2,13.1z"/>
<path class="st1" d="M288.6,300h-18.5v-2c0-5.1-4.1-9.3-9.3-9.3c-5.1,0-9.3,4.1-9.3,9.3v2h-18.5v-2c0-5.1-4.1-9.3-9.3-9.3
	s-9.3,4.1-9.3,9.3v2H196v-2c0-5.1-4.1-9.3-9.3-9.3s-9.3,4.1-9.3,9.3v2H159v-2c0-5.1-4.1-9.3-9.3-9.3s-9.3,4.1-9.3,9.3v2H122v-2
	c0-5.1-4.1-9.3-9.3-9.3s-9.3,4.1-9.3,9.3v2H85v-2c0-5.1-4.1-9.3-9.3-9.3s-9.3,4.1-9.3,9.3v2H47.9v-2c0-5.1-4.1-9.3-9.3-9.3
	s-9.3,4.1-9.3,9.3v2H10.9v-2c0-5-4.1-9.1-9.1-9.3H0v-18.5h1.8c5-0.2,9.1-4.3,9.1-9.3s-4.1-9.1-9.1-9.3H0v-18.5h1.8
	c5-0.2,9.1-4.3,9.1-9.3s-4.1-9.1-9.1-9.3H0v-18.5h1.8c5-0.2,9.1-4.3,9.1-9.3c0-5-4.1-9.1-9.1-9.3H0v-18.5h1.8c5-0.2,9.1-4.3,9.1-9.3
	s-4.1-9.1-9.1-9.3H0v-18.5h1.8c5-0.2,9.1-4.3,9.1-9.3c0-5-4.1-9.1-9.1-9.3H0V85.1h1.8c5-0.2,9.1-4.3,9.1-9.3c0-5-4.1-9.1-9.1-9.3H0
	V48.3h1.8c5-0.2,9.1-4.3,9.1-9.3s-4.1-9.1-9.1-9.3H0V11.2h1.8c5-0.2,9.1-4.3,9.1-9.3V0h18.5v2c0,5.1,4.1,9.3,9.3,9.3
	s9.3-4.1,9.3-9.3V0h18.5v2c0,5.1,4.1,9.3,9.3,9.3S85,7.1,85,2V0h18.5v2c0,5.1,4.1,9.3,9.3,9.3c5.1,0,9.3-4.1,9.3-9.3V0h18.5v2
	c0,5.1,4.1,9.3,9.3,9.3S159,7.1,159,2V0h18.5v2c0,5.1,4.1,9.3,9.3,9.3S196,7.1,196,2V0h18.5v2c0,5.1,4.1,9.3,9.3,9.3
	s9.3-4.1,9.3-9.3V0h18.5v2c0,5.1,4.1,9.3,9.3,9.3c5.1,0,9.3-4.1,9.3-9.3V0h18.5v2c0,5.1,4.1,9.3,9.3,9.3h2.1v18.7h-2h-0.2
	c-5.1,0-9.3,4.1-9.3,9.3s4.1,9.3,9.3,9.3h2.1v18.5h-2h-0.2c-5.1,0-9.3,4.1-9.3,9.3s4.1,9.3,9.3,9.3h2.1V104h-2h-0.2
	c-5.1,0-9.3,4.1-9.3,9.3c0,5.1,4.1,9.3,9.3,9.3h2.1V141h-2h-0.2c-5.1,0-9.3,4.1-9.3,9.3s4.1,9.3,9.3,9.3h2.1v18.7h-2h-0.2
	c-5.1,0-9.3,4.1-9.3,9.3s4.1,9.3,9.3,9.3h2.1v18.7h-2h-0.2c-5.1,0-9.3,4.1-9.3,9.3s4.1,9.3,9.3,9.3h2.1v18.7h-2h-0.2
	c-5.1,0-9.3,4.1-9.3,9.3c0,5.1,4.1,9.3,9.3,9.3h2.1v18.7h-2h-0.2c-5.1,0-9.3,4.1-9.3,9.3L288.6,300L288.6,300z M273.9,296.2H285
	c0.8-5.8,5.5-10.2,11.2-11.1V274c-6.4-0.8-11.4-6.3-11.4-13.1c0-6.6,5-12.2,11.4-13.1v-11.1c-6.4-0.8-11.4-6.3-11.4-13.1
	c0-6.6,5-12.2,11.4-13.1v-11.1c-6.4-0.8-11.4-6.3-11.4-13.1c0-6.6,5-12.2,11.4-13.1v-11.1c-6.4-0.8-11.4-6.3-11.4-13.1
	c0-6.6,5-12.2,11.4-13.1v-11.1c-6.4-0.8-11.4-6.3-11.4-13.1c0-6.6,5-12.2,11.4-13.1V88.1c-6.4-0.8-11.4-6.3-11.4-13.1
	s5-12.2,11.4-13.1V50.9c-6.4-0.8-11.4-6.3-11.4-13.1s5-12.2,11.4-13.1V13.7c-5.8-0.8-10.4-5.3-11.2-11.1h-11.1
	c-1,6.3-6.4,11.2-12.9,11.2c-6.6,0-12.1-4.8-12.9-11.2H237c-1,6.3-6.4,11.2-12.9,11.2c-6.4,0-12.1-4.8-12.9-11.2h-11.1
	c-1,6.3-6.4,11.2-12.9,11.2c-6.6,0-12.1-4.8-12.9-11.2h-11.6c-1,6.3-6.4,11.2-12.9,11.2S137.9,9.1,137,2.6H126
	c-1,6.3-6.4,11.2-12.9,11.2S101,9.1,100.2,2.6H89.1c-1,6.3-6.4,11.2-12.9,11.2S64.1,9.1,63.3,2.6H52.2c-1,6.3-6.4,11.2-12.9,11.2
	c-6.6,0-12.1-4.8-12.9-11.2H15.4c-0.8,5.6-5.3,10.1-10.9,11.1V25c6.3,1,10.9,6.4,10.9,12.9S10.6,49.8,4.5,50.7V62
	c6.3,1,10.9,6.4,10.9,12.9S10.6,86.8,4.5,87.8V99c6.3,1,10.9,6.4,10.9,12.9c0,6.4-4.8,11.9-10.9,12.9V136c6.3,1,10.9,6.4,10.9,12.9
	s-4.8,11.9-10.9,12.9v11.2c6.3,1,10.9,6.4,10.9,12.9s-4.8,11.9-10.9,12.9v11.2c6.3,1,10.9,6.4,10.9,12.9s-4.8,11.9-10.9,12.9v11.2
	c6.3,1,10.9,6.4,10.9,12.9s-4.8,11.9-10.9,12.9v11.2c5.6,1,9.9,5.5,10.9,11.1h11.1c1-6.3,6.4-11.2,12.9-11.2
	c6.6,0,12.1,4.8,12.9,11.2h11.1c1-6.3,6.4-11.2,12.9-11.2s12.1,4.8,12.9,11.2h11.1c1-6.3,6.4-11.2,12.9-11.2
	c6.4,0,12.1,4.8,12.9,11.2H137c1-6.3,6.4-11.2,12.9-11.2s12.1,4.8,12.9,11.2h11.1c1-6.3,6.4-11.2,12.9-11.2
	c6.6,0,12.1,4.8,12.9,11.2h11.1c1-6.3,6.4-11.2,12.9-11.2s12.1,4.8,12.9,11.2h11.1c1-6.3,6.4-11.2,12.9-11.2
	C267.4,285,272.9,289.9,273.9,296.2L273.9,296.2z"/>
<path class="st2" d="M42,42h215.9v215.9H42V42z"/>
<path class="st3" d="M115.4,100.8H99V84.5h58.2c36.4,0,44,24,44,40.7c0,13.4-5.5,23.6-11.1,29.3c-9.1,9.1-21.5,11.2-40.2,11.2h-14.7
	v33.9h17.2v16.4H99v-16.4h16.4V100.8z M151.6,149.6c24.1,0,29.4-11.2,29.4-24.8c0-15.5-8.8-24-23.1-24h-22.6v48.8H151.6z"/>
</svg>
