<?xml version="1.0" encoding="utf-8"?>
<!-- Generator: Adobe Illustrator 22.0.0, SVG Export Plug-In . SVG Version: 6.00 Build 0)  -->
<svg version="1.1" id="Capa_1" xmlns="http://www.w3.org/2000/svg" x="0px" y="0px"
     viewBox="0 0 512 512" style="enable-background:new 0 0 512 512;" xml:space="preserve">
<style type="text/css">
	.st0{fill:#556080;}
	.st1{fill:#38454F;}
	.st2{fill:#8697CB;}
	.st3{fill:#48A0DC;}
	.st4{fill:#B1D3EF;}
</style>
    <g>
	<g>
		<path class="st0" d="M476.4,164.9H35.6c-17.3,0-31.3-14-31.3-31.3V31.3C4.3,14,18.4,0,35.6,0h440.7c17.3,0,31.3,14,31.3,31.3
			v102.3C507.7,150.9,493.6,164.9,476.4,164.9z"/>
        <path class="st1" d="M476.4,329.8H35.6c-17.3,0-31.3-14-31.3-31.3V196.2c0-17.3,14-31.3,31.3-31.3h440.7c17.3,0,31.3,14,31.3,31.3
			v102.3C507.7,315.7,493.6,329.8,476.4,329.8z"/>
        <path class="st0" d="M476.4,494.6H35.6c-17.3,0-31.3-14-31.3-31.3V361.1c0-17.3,14-31.3,31.3-31.3h440.7c17.3,0,31.3,14,31.3,31.3
			v102.3C507.7,480.6,493.6,494.6,476.4,494.6z"/>
        <circle class="st2" cx="86.8" cy="82.4" r="30.4"/>
        <circle class="st2" cx="429.6" cy="69.4" r="8.7"/>
        <circle class="st2" cx="394.8" cy="69.4" r="8.7"/>
        <circle class="st2" cx="446.9" cy="95.5" r="8.7"/>
        <circle class="st2" cx="412.2" cy="95.5" r="8.7"/>
        <circle class="st2" cx="360.1" cy="69.4" r="8.7"/>
        <circle class="st2" cx="377.5" cy="95.5" r="8.7"/>
        <circle class="st2" cx="325.4" cy="69.4" r="8.7"/>
        <circle class="st2" cx="342.8" cy="95.5" r="8.7"/>
        <circle class="st2" cx="290.7" cy="69.4" r="8.7"/>
        <circle class="st2" cx="308.1" cy="95.5" r="8.7"/>
        <circle class="st2" cx="86.8" cy="247.3" r="30.4"/>
        <circle class="st2" cx="429.6" cy="234.3" r="8.7"/>
        <circle class="st2" cx="394.8" cy="234.3" r="8.7"/>
        <circle class="st2" cx="446.9" cy="260.3" r="8.7"/>
        <circle class="st2" cx="412.2" cy="260.3" r="8.7"/>
        <circle class="st2" cx="360.1" cy="234.3" r="8.7"/>
        <circle class="st2" cx="377.5" cy="260.3" r="8.7"/>
        <circle class="st2" cx="325.4" cy="234.3" r="8.7"/>
        <circle class="st2" cx="342.8" cy="260.3" r="8.7"/>
        <circle class="st2" cx="290.7" cy="234.3" r="8.7"/>
        <circle class="st2" cx="308.1" cy="260.3" r="8.7"/>
        <circle class="st2" cx="86.8" cy="412.2" r="30.4"/>
        <circle class="st2" cx="429.6" cy="399.2" r="8.7"/>
        <circle class="st2" cx="394.8" cy="399.2" r="8.7"/>
        <circle class="st2" cx="446.9" cy="425.2" r="8.7"/>
        <circle class="st2" cx="412.2" cy="425.2" r="8.7"/>
        <circle class="st2" cx="360.1" cy="399.2" r="8.7"/>
        <circle class="st2" cx="377.5" cy="425.2" r="8.7"/>
        <circle class="st2" cx="325.4" cy="399.2" r="8.7"/>
        <circle class="st2" cx="342.8" cy="425.2" r="8.7"/>
        <circle class="st2" cx="290.7" cy="399.2" r="8.7"/>
        <circle class="st2" cx="308.1" cy="425.2" r="8.7"/>
	</g>
        <g>
		<g>
			<path class="st3" d="M464.7,417.5c-0.4-34.2-27.4-61.7-60.7-61.7c-22.3,0-41.7,12.4-52.3,30.8c-3.7-1.2-7.5-1.9-11.6-1.9
				c-17.9,0-32.8,12.9-36.5,30.2c-15.2,7.5-25.8,23.5-25.8,41.9c0,25.6,20.3,46.5,45.2,46.5h93.5c0.5,0,1-0.1,1.6-0.1
				c0.5,0,1,0.1,1.6,0.1h37.4c23.1,0,42.1-19.5,42.1-43.3C499,438.9,484.1,421.3,464.7,417.5z"/>
            <path class="st4" d="M456.9,512h-37.4c-0.5,0-1.1,0-1.6-0.1c-0.4,0-0.9,0.1-1.5,0.1h-93.5c-29.7,0-53.9-24.8-53.9-55.2
				c0-19.6,10.5-37.9,27-47.8c6-19.4,23.8-33.1,44-33.1c2.6,0,5.1,0.2,7.7,0.7c13-18.4,34-29.5,56.2-29.5c35.6,0,65.3,28,69,63.6
				c20.5,7,34.7,26.7,34.7,49.3C507.7,488.7,484.9,512,456.9,512z M417.5,494.6l1.6,0.1l37.8,0c18.4,0,33.4-15.5,33.4-34.6
				c0-16.6-11.5-30.9-27.3-34l-6.9-1.3l-0.1-7.1c-0.4-29.3-23.7-53.1-52.1-53.1c-18.5,0-35.3,9.9-44.8,26.4l-3.5,6.2l-6.7-2.3
				c-2.9-1-5.9-1.5-8.8-1.5c-13.4,0-25.1,9.8-28,23.4l-0.9,4.1l-3.8,1.9c-12.7,6.3-21,19.7-21,34.1c0,20.9,16.4,37.8,36.5,37.8
				L417.5,494.6z"/>
		</g>
	</g>
</g>
</svg>
